PathFileType	4	(X/Y/Z)	C:/Users/beibeiliu/ov580/test_trc\sequence.35_training_dense_right.trc
DataRate	CameraRate	NumFrames	NumMarkers	Units	OrigDataRate	OrigDataStartFrame	OrigNumFrames
120	120	18	19	mm	120	1	57
Frame#	Time	ThumbCMC			ThumbMCP			ThumbIP			ThumbTip			IndexMCP			IndexPIP			IndexTip			MiddleMCP			MiddlePIP			MiddleTip			RingMCP			RingPIP			RingTip			PinkyMCP			PinkyPIP			PinkyTip			BackHand1			BackHand2			BackHand3	
		X0	Y0	Z0	X1	Y1	Z1	X2	Y2	Z2	X3	Y3	Z3	X4	Y4	Z4	X5	Y5	Z5	X6	Y6	Z6	X7	Y7	Z7	X8	Y8	Z8	X9	Y9	Z9	X10	Y10	Z10	X11	Y11	Z11	X12	Y12	Z12	X13	Y13	Z13	X14	Y14	Z14	X15	Y15	Z15	X16	Y16	Z16	X17	Y17	Z17	X18	Y18	Z18	
0	0	156.069	-0.209397	125.65	149.07	21.3773	101.075	142.876	27.4961	74.0641	133.16	25.1053	51.7687	150.193	-26.3134	54.3878	133.431	-21.462	27.2996	115.226	-11.5197	12.3983	125.086	-35.4446	53.8164	102.09	-12.6145	47.0789	96.2338	3.20097	81.013	110.758	-43.0656	61.4362	89.4072	-19.9853	61.3284	92.1714	-4.3157	92.4581	100.829	-53.0467	74.4401	82.3674	-29.2759	73.4753	90.4526	-11.6345	98.3947	140.541	-59.5311	107.799	148.881	-57.056	139.184	164.329	-34.5357	119.086	
1	0.00833333	163.316	-2.91054	124.266	153.986	15.2599	106.445	147.16	21.4377	76.0761	136.454	20.471	55.4596	162.318	-29.9177	58.1221	145.727	-21.0411	30.3213	117.927	-4.06668	33.8831	144.952	-39.3393	54.6312	118.769	-18.4864	41.8201	106.653	-2.40261	71.8089	128.245	-48.8701	57.5919	102.993	-34.9977	52.0438	100.552	-10.487	78.9781	115.695	-59.5901	73.6187	95.2481	-38.1359	64.6644	100.034	-16.0155	86.5922	149.265	-63.0196	110.435	153.957	-61.1774	141.527	172.925	-39.0384	120.247	
2	0.0166667	169.68	-4.50779	132.63	158.859	12.0271	106.966	152.389	19.7928	79.0091	139.719	11.0338	59.4702	170.001	-32.6452	60.789	155.444	-20.8528	36.3849	128.728	-3.45247	48.4292	154.701	-42.86	52.5181	132.6	-23.5261	40.6969	117.509	-6.95981	70.9002	138.32	-56.3628	60.4796	119.266	-38.8043	48.7052	109.679	-16.704	74.1175	126.352	-64.1017	72.8335	106.938	-45.9967	61.6714	105.064	-21.8252	79.4705	154.678	-67.1005	112.641	156.851	-67.5651	142.26	177.833	-44.5334	126.072	
3	0.025	174.735	-6.4903	131.947	164.608	12.9532	111.116	155.787	16.5976	80.3129	141.639	9.4761	60.4278	176.508	-33.4527	64.4022	156.314	-18.9035	40.4302	134.302	-3.94388	58.665	157.45	-48.8706	57.1053	134.359	-27.175	44.4334	123.113	-11.7948	73.9213	144.421	-57.6612	60.7432	121.719	-37.316	51.3984	117.764	-18.3519	77.6518	131.027	-66.399	76.2634	113.675	-49.0941	62.3737	112.068	-22.6033	85.6536	161.079	-68.4415	114.987	159.057	-67.2073	147.316	183.073	-44.3254	124.976	
4	0.0333333	177.309	-8.31455	131.81	165.369	9.20086	111.793	157.7	15.3442	83.0365	142.321	6.15055	62.2839	175.828	-37.2615	62.3982	159.622	-23.043	40.7022	135.796	-7.19369	59.7648	161.59	-47.8135	61.3728	135.499	-26.8445	48.1913	125.788	-11.4567	76.3089	144.961	-59.073	67.5286	123.655	-36.1465	55.8815	120.261	-19.7369	85.1813	130.026	-69.7408	80.514	113.135	-45.9765	66.2582	116.212	-26.8933	91.809	161.445	-70.4194	119.555	160.489	-72.8172	148.954	181.149	-50.2434	130.413	
5	0.0416667	175.026	-9.62578	130.771	162.751	6.16367	111.99	155.371	13.6943	88.1526	141.941	6.89645	65.7107	175.036	-35.2985	63.3106	152.854	-26.7585	41.944	133.967	-2.82564	57.3057	155.722	-49.5966	61.7408	130.36	-30.684	49.09	122.657	-12.325	78.3138	140.736	-57.6054	64.9788	116.983	-39.4646	58.8874	118.922	-21.3101	86.0163	125.223	-70.1388	78.1152	110.683	-48.244	69.2566	115.5	-27.3008	99.1709	157.28	-74.3258	116.972	161.424	-71.258	145.798	180.376	-50.8232	125.917	
6	0.05	171.618	-10.8742	131.498	162.826	10.1164	112.241	153.983	17.7561	84.1161	138.662	10.9048	63.9119	170.255	-34.812	62.5269	151.581	-21.2739	39.795	126.66	-6.74458	56.1485	152.573	-45.5969	59.9239	126.837	-26.7327	50.6232	119.253	-11.055	82.7451	133.347	-58.7009	65.4516	111.206	-37.317	62.2352	113.156	-21.357	91.2233	123.769	-67.5273	81.1408	103.26	-44.6765	75.319	114.46	-27.5139	102.863	158.736	-71.6892	118.402	161.762	-68.8879	146.929	179.385	-47.9669	125.176	
7	0.0583333	170.37	-7.28226	135.686	159.41	12.2389	112.603	149.331	19.2989	86.4857	132.796	10.3565	64.5828	168.051	-30.3053	61.2412	143.946	-19.0377	41.5488	122.163	-0.201288	57.7637	145.998	-42.3086	59.1156	121.79	-22.16	53.0139	115.211	-9.93886	89.3872	128.309	-54.6501	65.7935	106.146	-33.3477	65.1326	111.263	-16.683	92.0548	120.851	-65.4346	82.2617	101.845	-43.4113	74.3415	108.694	-24.2164	103.972	157.352	-69.6545	113.079	160.975	-68.1633	147.878	179.768	-44.183	126.94	
8	0.0666667	165.404	-6.58295	131.572	153.832	15.974	114.329	142.224	20.8021	90.5527	124.95	12.6978	69.6542	162.355	-26.7552	61.2549	142.039	-14.1869	41.306	119.24	0.868933	56.3094	143.645	-38.7863	60.2816	117.018	-17.1157	55.4176	111.673	-5.3618	84.187	130.366	-50.1708	68.3888	106.721	-30.2161	63.0355	107.681	-13.4914	95.5768	116.993	-61.9459	80.6869	100.237	-37.7158	75.4355	102.97	-23.1334	103.353	152.614	-69.448	114.658	156.506	-67.8731	144.644	174.705	-43.1322	127.908	
9	0.075	165.479	-1.29746	136.053	148.204	19.4856	114.356	135.463	24.0844	90.9497	117.078	10.6028	70.943	159.368	-24.4038	61.642	142.96	-10.0733	42.1084	117.563	6.81494	60.6831	143.146	-32.3073	57.3133	115.658	-13.6561	54.4247	109.992	-0.49807	84.0221	128.272	-47.5892	68.007	105.957	-27.0279	61.3989	104.556	-9.38949	91.2935	113.869	-60.2413	80.382	96.9664	-36.035	74.3176	102.83	-16.2714	98.9456	152.692	-60.5405	116.389	154.865	-64.3465	142.861	173.807	-42.3309	127.961	
10	0.0833333	163.799	-2.06283	132.366	147.131	22.2572	111.83	131.073	27.4953	89.3415	112.777	8.92589	73.5716	161.133	-19.8346	63.8515	138.047	-3.95212	43.2342	115.941	6.53191	62.9122	141.328	-32.19	58.0138	115.547	-16.023	51.0765	109.005	-1.14836	83.8836	125.801	-45.9517	64.3164	104.253	-26.1499	59.6319	101.765	-7.61855	88.2936	113.289	-58.4912	80.0498	97.1623	-35.3706	72.2605	101.467	-13.1094	98.6776	153.107	-59.2629	117.007	158.03	-62.8088	145.279	172.659	-38.3236	127.292	
11	0.0916667	166.431	-0.205716	136.537	149.456	18.6012	115.401	132.095	25.7586	87.8907	113.07	9.25303	73.3568	160.887	-15.9759	61.0074	136.568	-2.51046	45.633	120.162	11.2561	71.454	145.955	-30.2487	59.8494	117.457	-12.7705	50.3385	111.432	3.42771	81.9251	128.596	-45.0871	64.0017	105.383	-26.3746	58.1385	103.324	-5.32135	86.5004	117.903	-53.0889	76.3606	97.1946	-32.3996	70.7656	97.6166	-12.5457	95.5474	152.03	-60.3855	111.301	158.522	-61.5884	142.734	175.847	-34.9764	122.048	
12	0.1	170.003	2.99622	135.514	152.352	21.6028	115.507	136.925	28.4866	93.7021	118.506	14.5271	76.5763	161.714	-11.9866	58.4461	136.572	2.1848	48.4062	124.442	15.5852	72.7598	146.681	-26.2103	54.8421	117.891	-10.2005	51.5967	111.735	2.81047	81.7945	130.889	-41.2908	62.3909	105.169	-22.5076	57.8258	103.699	-1.13423	82.6753	118.416	-53.1697	75.8201	100.855	-31.219	68.3612	99.2344	-8.84811	90.8074	156.431	-58.3989	111.35	159.56	-59.6705	141.096	179.599	-35.3383	124.779	
13	0.108333	168.038	1.57005	133.414	152.614	24.9677	115.911	138.15	29.3824	93.1738	119.742	18.7266	78.3347	159.473	-10.781	62.6449	135.315	6.06764	50.647	125.56	17.9282	82.6702	145.729	-27.8145	59.1057	120.735	-8.24387	49.1132	111.745	5.81682	84.7403	128.615	-39.8584	61.9478	111.219	-18.2671	55.6994	100.596	-0.332943	79.582	118.032	-52.1631	79.0746	98.9673	-27.7437	69.4589	98.0402	-6.62227	87.2661	155.859	-55.0717	114.515	159.476	-58.0727	139.775	179.985	-32.7346	124.901	
14	0.116667	166.535	5.75994	134.252	150.913	30.448	118.179	134.949	32.8129	94.2323	114.31	15.4421	77.219	157.294	-5.16728	59.603	131.255	10.6527	54.3181	123.927	20.9531	82.6973	145.042	-20.5215	58.5661	118.615	-6.13792	50.2034	111.211	8.63452	85.1556	126.675	-37.9629	64.2726	104.649	-14.382	58.0869	101.143	3.97193	85.5212	116.937	-48.0127	80.0311	95.1182	-29.2169	69.2942	95.8777	-3.01121	92.7942	151.096	-54.7871	113.768	159.766	-54.8837	141.886	175.187	-29.6993	122.083	
15	0.125	165.912	7.9778	134.126	147.083	28.7754	118.274	130.897	34.0667	95.3321	112.275	17.0902	81.3117	154.739	-3.4542	61.2484	129.472	14.6414	56.113	122.1	23.1577	85.5507	140.105	-19.7808	57.7911	116.182	0.600999	54.2705	110.689	10.8673	86.2093	126.979	-33.1447	64.1826	101.014	-18.1656	58.8078	97.4194	2.73247	88.4097	114.514	-47.5563	80.1616	93.9316	-27.4469	71.5345	94.6589	-3.6579	94.6232	149.795	-55.7584	115.198	156.125	-57.5229	140.448	173.826	-29.4314	125.946	
16	0.133333	162.938	4.2912	135.44	144.92	28.8267	117.305	126.713	28.3946	93.4177	108.438	12.079	81.8369	152.207	-3.14529	61.1851	128.857	15.3149	56.7914	120.539	18.9739	90.7163	141.215	-20.9159	60.4575	115.535	-1.54844	54.7935	108.787	4.96455	89.7054	126.966	-35.2564	68.6962	101.1	-14.363	62.4343	100.008	2.97895	91.8025	114.037	-49.3829	82.5703	94.5947	-24.5064	74.165	97.085	-4.43738	98.4178	151.328	-55.0485	115.489	157.303	-58.3852	143.879	172.951	-30.8041	126.919	
17	0.141667	163.815	7.92658	133.841	141.65	26.1944	115.963	125.344	33.0767	96.0077	108.256	14.2699	82.9032	149.378	-2.51198	61.472	125.082	15.2246	59.4049	120.15	19.4223	90.8155	136.385	-19.5883	58.7952	111.31	0.293697	59.0917	112.492	9.20835	92.8076	125.543	-31.5902	65.3976	98.1863	-12.2009	65.7734	101.1	3.3709	91.7883	114.024	-44.6246	78.4972	93.4326	-22.6936	75.5117	93.0136	-5.11816	101.463	150.895	-54.9617	114.204	158.247	-57.218	144.737	174.88	-27.1742	125.921	
